<?xml version="1.0" standalone="no"?>
<!DOCTYPE svg PUBLIC "-//W3C//DTD SVG 20010904//EN"
 "http://www.w3.org/TR/2001/REC-SVG-20010904/DTD/svg10.dtd">
<svg version="1.0" xmlns="http://www.w3.org/2000/svg"
 width="512.000000pt" height="512.000000pt" viewBox="0 0 512.000000 512.000000"
 preserveAspectRatio="xMidYMid meet">
<metadata>
Created by potrace 1.14, written by Peter Selinger 2001-2017
</metadata>
<g transform="translate(0.000000,512.000000) scale(0.100000,-0.100000)"
fill="#000000" stroke="none">
<path d="M2522 4873 c-31 -12 -42 -61 -42 -188 l0 -125 80 0 80 0 0 123 c0 67
-3 132 -6 145 -10 36 -72 61 -112 45z"/>
<path d="M1384 4345 c-13 -31 -24 -58 -24 -61 0 -3 -6 -20 -14 -37 -33 -73
-102 -323 -112 -404 -3 -26 -7 -50 -9 -53 -25 -40 -26 -646 -1 -688 2 -4 6
-32 10 -62 10 -86 75 -314 125 -440 l46 -115 233 -3 c127 -1 232 0 232 2 0 2
-15 44 -33 93 -67 177 -100 299 -132 498 -15 94 -20 194 -19 400 1 200 5 248
27 370 28 151 27 151 51 241 21 81 93 284 107 301 10 11 -29 13 -225 13 l-237
0 -25 -55z"/>
<path d="M2025 4344 c-14 -31 -25 -62 -25 -68 0 -7 -4 -16 -8 -21 -13 -14 -47
-116 -76 -225 -25 -94 -31 -123 -42 -190 -3 -19 -7 -41 -9 -48 -26 -77 -27
-615 -1 -694 3 -7 7 -31 10 -53 11 -80 19 -112 51 -225 18 -64 53 -165 77
-225 l44 -110 232 -3 c128 -1 232 0 232 2 0 2 -15 44 -33 93 -67 177 -100 299
-132 498 -21 130 -28 496 -11 645 19 177 75 406 142 583 19 49 34 91 34 93 0
2 -104 4 -230 4 l-230 0 -25 -56z"/>
<path d="M2687 4393 c-35 -59 -134 -349 -153 -448 -2 -11 -8 -42 -14 -70 -29
-150 -35 -212 -35 -420 0 -177 8 -322 19 -356 3 -7 7 -32 10 -54 15 -109 55
-256 111 -407 66 -177 31 -158 297 -158 126 0 228 2 228 5 0 2 -9 28 -21 57
-51 128 -107 323 -128 445 -6 35 -13 75 -16 90 -27 159 -27 597 0 733 3 14 12
63 21 110 21 109 74 294 113 393 17 43 31 80 31 82 0 8 -459 6 -463 -2z"/>
<path d="M3327 4393 c-15 -26 -79 -193 -106 -275 -32 -101 -74 -295 -88 -408
-10 -82 -10 -444 -1 -530 19 -161 69 -378 112 -490 33 -84 59 -147 73 -177
l15 -33 229 0 c126 0 229 2 229 4 0 2 -15 44 -33 93 -52 138 -89 264 -113 388
-4 22 -9 47 -10 55 -2 8 -6 38 -10 65 -3 28 -9 75 -14 105 -8 58 -5 490 4 550
3 19 8 49 11 65 25 163 81 375 135 510 17 42 30 78 30 80 0 8 -459 6 -463 -2z"/>
<path d="M278 3110 c-27 -17 -22 -25 31 -59 148 -96 241 -259 247 -437 5 -127
-15 -190 -133 -430 -153 -309 -176 -399 -177 -684 -1 -149 3 -214 17 -276 53
-248 159 -447 332 -620 173 -174 352 -274 605 -337 84 -21 99 -21 1399 -24
1389 -4 1384 -4 1515 41 337 116 568 407 602 756 1 14 3 199 4 411 1 472 7
515 100 705 33 67 60 126 60 132 0 20 -41 34 -83 28 -100 -14 -196 -96 -221
-190 -8 -28 -17 -86 -20 -128 -5 -71 -36 -180 -67 -238 -53 -96 -141 -187
-232 -238 -53 -30 -165 -72 -192 -72 -11 0 -12 -5 -5 -25 18 -47 23 -172 10
-242 -52 -282 -309 -482 -589 -459 -95 7 -126 16 -218 62 -73 37 -196 146
-208 185 -9 28 -16 23 -55 -32 -65 -92 -186 -172 -309 -203 -83 -20 -224 -15
-303 12 -107 36 -239 134 -288 215 l-17 28 -34 -43 c-19 -24 -41 -50 -49 -59
-26 -26 -107 -89 -115 -89 -5 0 -16 -6 -24 -14 -55 -47 -252 -76 -371 -55
-145 27 -294 135 -374 271 -78 134 -97 339 -42 469 6 13 -6 25 -51 50 -70 39
-179 146 -217 212 -16 26 -40 80 -54 120 l-27 72 -5 446 -5 445 -37 76 c-45
90 -104 148 -191 188 -69 32 -180 48 -209 30z"/>
<path d="M2480 2078 l0 -243 80 0 80 0 0 243 0 242 -80 0 -80 0 0 -242z"/>
<path d="M1500 1667 c-119 -35 -210 -112 -263 -224 -29 -62 -32 -77 -32 -164
0 -90 2 -99 37 -171 45 -90 104 -148 191 -188 202 -94 433 -8 530 197 28 61
31 77 32 163 0 86 -3 101 -31 160 -69 144 -187 226 -339 235 -50 3 -97 0 -125
-8z m157 -238 c105 -39 134 -175 54 -259 -108 -114 -292 -17 -266 141 16 95
121 153 212 118z"/>
<path d="M2460 1667 c-119 -35 -210 -112 -263 -224 -29 -62 -32 -77 -32 -164
0 -90 2 -99 37 -171 45 -91 103 -147 196 -191 61 -29 76 -32 162 -32 83 0 103
4 154 28 164 76 249 214 242 389 -9 202 -167 361 -371 373 -50 3 -97 0 -125
-8z m184 -253 c93 -63 100 -187 15 -259 -57 -48 -146 -45 -204 6 -84 74 -62
220 40 265 44 20 110 14 149 -12z"/>
<path d="M3406 1663 c-124 -37 -232 -146 -269 -271 -10 -32 -15 -82 -13 -130
6 -204 169 -369 375 -378 93 -4 166 15 238 63 69 45 109 93 147 173 28 58 31
75 31 160 0 86 -3 101 -31 160 -70 148 -195 232 -349 236 -48 1 -100 -4 -129
-13z m198 -249 c51 -35 70 -71 71 -135 0 -46 -5 -62 -29 -93 -37 -49 -86 -70
-145 -62 -46 6 -103 42 -122 78 -43 79 -6 188 76 224 44 20 110 14 149 -12z"/>
</g>
</svg>
